<svg width="255" height="210" viewBox="0 0 255 210" fill="none" xmlns="http://www.w3.org/2000/svg">
<path fill-rule="evenodd" clip-rule="evenodd" d="M182.882 71.0141C182.882 73.4233 182.758 75.8036 182.517 78.149C189.953 71.6871 199.664 67.7752 210.288 67.7752C233.68 67.7752 252.643 86.7383 252.643 110.13C252.643 133.523 233.68 152.486 210.288 152.486H45.6379C45.6256 152.486 45.6133 152.486 45.601 152.486C45.5887 152.486 45.5764 152.486 45.5641 152.486H45.3518C21.3863 152.352 2 132.882 2 108.885C2 84.9758 21.2441 65.5617 45.0878 65.2867C47.999 29.8508 77.6809 2 113.868 2C151.983 2 182.882 32.8987 182.882 71.0141Z" fill="url(#paint0_linear_280_163)"/>
<mask id="mask0_280_163" style="mask-type:luminance" maskUnits="userSpaceOnUse" x="0" y="0" width="255" height="155">
<path d="M255 0H0V155H255V0Z" fill="white"/>
<path fill-rule="evenodd" clip-rule="evenodd" d="M182.882 71.0141C182.882 73.4233 182.758 75.8036 182.517 78.149C189.953 71.6871 199.664 67.7752 210.288 67.7752C233.68 67.7752 252.643 86.7383 252.643 110.13C252.643 133.523 233.68 152.486 210.288 152.486H45.6379C45.6256 152.486 45.6133 152.486 45.601 152.486C45.5887 152.486 45.5764 152.486 45.5641 152.486H45.3518C21.3863 152.352 2 132.882 2 108.885C2 84.9758 21.2441 65.5617 45.0878 65.2867C47.999 29.8508 77.6809 2 113.868 2C151.983 2 182.882 32.8987 182.882 71.0141Z" fill="black"/>
</mask>
<g mask="url(#mask0_280_163)">
<path d="M182.517 78.149L180.528 77.9447L180.011 82.9771L183.829 79.6586L182.517 78.149ZM45.3518 152.486H43.3518V154.486H45.3518V152.486ZM45.3518 152.486L47.3518 152.485V150.496L45.363 150.485L45.3518 152.486ZM45.0878 65.2867L45.1109 67.2866L46.932 67.2655L47.0811 65.4504L45.0878 65.2867ZM184.507 78.3534C184.755 75.9401 184.882 73.4916 184.882 71.0141H180.882C180.882 73.3549 180.762 75.667 180.528 77.9447L184.507 78.3534ZM210.288 65.7752C199.163 65.7752 188.991 69.8733 181.206 76.6395L183.829 79.6586C190.915 73.5008 200.164 69.7752 210.288 69.7752V65.7752ZM254.643 110.13C254.643 85.6337 234.785 65.7752 210.288 65.7752V69.7752C232.576 69.7752 250.643 87.8429 250.643 110.13H254.643ZM210.288 154.486C234.785 154.486 254.643 134.627 254.643 110.13H250.643C250.643 132.418 232.576 150.486 210.288 150.486V154.486ZM210.288 150.486H45.6379V154.486H210.288V150.486ZM45.601 154.486C45.6079 154.486 45.6146 154.486 45.6207 154.486C45.6269 154.486 45.6324 154.486 45.6379 154.486V150.486C45.631 150.486 45.6242 150.486 45.6182 150.486C45.6119 150.486 45.6064 150.486 45.601 150.486V154.486ZM45.5641 154.486C45.5695 154.486 45.5751 154.486 45.5813 154.486C45.5873 154.486 45.5941 154.486 45.601 154.486V150.486C45.5956 150.486 45.59 150.486 45.5838 150.486C45.5778 150.486 45.571 150.486 45.5641 150.486V154.486ZM45.5641 150.486H45.3518V154.486H45.5641V150.486ZM0 108.885C0 133.983 20.2756 154.345 45.3407 154.485L45.363 150.485C22.4971 150.357 4 131.781 4 108.885H0ZM45.0647 63.2868C20.1268 63.5744 0 83.879 0 108.885H4C4 86.0727 22.3614 67.5489 45.1109 67.2866L45.0647 63.2868ZM113.868 0C76.6312 0 46.0902 28.6581 43.0945 65.1229L47.0811 65.4504C49.9077 31.0436 78.7306 4 113.868 4V0ZM184.882 71.0141C184.882 31.7941 153.088 0 113.868 0V4C150.879 4 180.882 34.0033 180.882 71.0141H184.882Z" fill="url(#paint1_linear_280_163)"/>
</g>
<path fill-rule="evenodd" clip-rule="evenodd" d="M27 175.5C27 171.91 29.9101 169 33.5 169H161.5C165.09 169 168 171.91 168 175.5C168 179.09 165.09 182 161.5 182H33.5C29.9101 182 27 179.09 27 175.5ZM176 175.5C176 171.91 178.91 169 182.5 169H210.5C214.09 169 217 171.91 217 175.5C217 179.09 214.09 182 210.5 182H182.5C178.91 182 176 179.09 176 175.5ZM37 203.5C37 199.91 39.9101 197 43.5 197H71.5C75.09 197 78 199.91 78 203.5C78 207.09 75.09 210 71.5 210H43.5C39.9101 210 37 207.09 37 203.5Z" fill="url(#paint2_linear_280_163)"/>
<path d="M92.5 197C88.9101 197 86 199.91 86 203.5C86 207.09 88.9101 210 92.5 210H220.5C224.09 210 227 207.09 227 203.5C227 199.91 224.09 197 220.5 197H92.5Z" fill="url(#paint3_linear_280_163)"/>
<defs>
<linearGradient id="paint0_linear_280_163" x1="79.9027" y1="1.3724" x2="140.193" y2="153.113" gradientUnits="userSpaceOnUse">
<stop stop-color="white"/>
<stop offset="1" stop-color="#93CAEA" stop-opacity="0.69"/>
</linearGradient>
<linearGradient id="paint1_linear_280_163" x1="119.193" y1="-50.1111" x2="202.515" y2="214.081" gradientUnits="userSpaceOnUse">
<stop stop-color="white"/>
<stop offset="1" stop-color="#7EA7BE" stop-opacity="0.71"/>
</linearGradient>
<linearGradient id="paint2_linear_280_163" x1="198.282" y1="107.365" x2="83.689" y2="243.32" gradientUnits="userSpaceOnUse">
<stop stop-color="#F1F1F1"/>
<stop offset="1" stop-color="#B6B6B6"/>
</linearGradient>
<linearGradient id="paint3_linear_280_163" x1="198.282" y1="107.365" x2="83.689" y2="243.32" gradientUnits="userSpaceOnUse">
<stop stop-color="#F1F1F1"/>
<stop offset="1" stop-color="#B6B6B6"/>
</linearGradient>
</defs>
</svg>
