<svg width="255" height="248" viewBox="0 0 255 248" fill="none" xmlns="http://www.w3.org/2000/svg">
<path fill-rule="evenodd" clip-rule="evenodd" d="M182.882 71.0141C182.882 73.4233 182.758 75.8036 182.517 78.149C189.953 71.6871 199.664 67.7752 210.288 67.7752C233.68 67.7752 252.643 86.7383 252.643 110.13C252.643 133.523 233.68 152.486 210.288 152.486H45.6379C45.6256 152.486 45.6133 152.486 45.601 152.486C45.5887 152.486 45.5764 152.486 45.5641 152.486H45.3518C21.3863 152.352 2 132.882 2 108.885C2 84.9758 21.2441 65.5617 45.0878 65.2867C47.999 29.8508 77.6809 2 113.868 2C151.983 2 182.882 32.8987 182.882 71.0141Z" fill="url(#paint0_linear_284_176)"/>
<mask id="mask0_284_176" style="mask-type:luminance" maskUnits="userSpaceOnUse" x="0" y="0" width="255" height="155">
<path d="M255 0H0V155H255V0Z" fill="white"/>
<path fill-rule="evenodd" clip-rule="evenodd" d="M182.882 71.0141C182.882 73.4233 182.758 75.8036 182.517 78.149C189.953 71.6871 199.664 67.7752 210.288 67.7752C233.68 67.7752 252.643 86.7383 252.643 110.13C252.643 133.523 233.68 152.486 210.288 152.486H45.6379C45.6256 152.486 45.6133 152.486 45.601 152.486C45.5887 152.486 45.5764 152.486 45.5641 152.486H45.3518C21.3863 152.352 2 132.882 2 108.885C2 84.9758 21.2441 65.5617 45.0878 65.2867C47.999 29.8508 77.6809 2 113.868 2C151.983 2 182.882 32.8987 182.882 71.0141Z" fill="black"/>
</mask>
<g mask="url(#mask0_284_176)">
<path d="M182.517 78.149L180.528 77.9447L180.011 82.9771L183.829 79.6586L182.517 78.149ZM45.3518 152.486H43.3518V154.486H45.3518V152.486ZM45.3518 152.486L47.3518 152.485V150.496L45.363 150.485L45.3518 152.486ZM45.0878 65.2867L45.1109 67.2866L46.932 67.2655L47.0811 65.4504L45.0878 65.2867ZM184.507 78.3534C184.755 75.9401 184.882 73.4916 184.882 71.0141H180.882C180.882 73.3549 180.762 75.667 180.528 77.9447L184.507 78.3534ZM210.288 65.7752C199.163 65.7752 188.991 69.8733 181.206 76.6395L183.829 79.6586C190.915 73.5008 200.164 69.7752 210.288 69.7752V65.7752ZM254.643 110.13C254.643 85.6337 234.785 65.7752 210.288 65.7752V69.7752C232.576 69.7752 250.643 87.8429 250.643 110.13H254.643ZM210.288 154.486C234.785 154.486 254.643 134.627 254.643 110.13H250.643C250.643 132.418 232.576 150.486 210.288 150.486V154.486ZM210.288 150.486H45.6379V154.486H210.288V150.486ZM45.601 154.486C45.6079 154.486 45.6146 154.486 45.6207 154.486C45.6269 154.486 45.6324 154.486 45.6379 154.486V150.486C45.631 150.486 45.6242 150.486 45.6182 150.486C45.6119 150.486 45.6064 150.486 45.601 150.486V154.486ZM45.5641 154.486C45.5695 154.486 45.5751 154.486 45.5813 154.486C45.5873 154.486 45.5941 154.486 45.601 154.486V150.486C45.5956 150.486 45.59 150.486 45.5838 150.486C45.5778 150.486 45.571 150.486 45.5641 150.486V154.486ZM45.5641 150.486H45.3518V154.486H45.5641V150.486ZM0 108.885C0 133.983 20.2756 154.345 45.3407 154.485L45.363 150.485C22.4971 150.357 4 131.781 4 108.885H0ZM45.0647 63.2868C20.1268 63.5744 0 83.879 0 108.885H4C4 86.0727 22.3614 67.5489 45.1109 67.2866L45.0647 63.2868ZM113.868 0C76.6312 0 46.0902 28.6581 43.0945 65.1229L47.0811 65.4504C49.9077 31.0436 78.7306 4 113.868 4V0ZM184.882 71.0141C184.882 31.7941 153.088 0 113.868 0V4C150.879 4 180.882 34.0033 180.882 71.0141H184.882Z" fill="url(#paint1_linear_284_176)"/>
</g>
<path fill-rule="evenodd" clip-rule="evenodd" d="M166.06 92.5C166.06 88.9102 168.97 86 172.56 86C188.835 86 202 99.2235 202 115.5C202 131.777 188.835 145 172.56 145H79C75.4101 145 72.5 142.09 72.5 138.5C72.5 134.91 75.4101 132 79 132H172.56C181.624 132 189 124.629 189 115.5C189 106.371 181.624 99 172.56 99C168.97 99 166.06 96.0899 166.06 92.5ZM27 167.5C27 163.91 29.9102 161 33.5 161H161.5C165.09 161 168 163.91 168 167.5C168 171.09 165.09 174 161.5 174H33.5C29.9102 174 27 171.09 27 167.5ZM176 167.5C176 163.91 178.91 161 182.5 161H210.5C214.09 161 217 163.91 217 167.5C217 171.09 214.09 174 210.5 174H182.5C178.91 174 176 171.09 176 167.5ZM37 195.5C37 191.91 39.9101 189 43.5 189H71.5C75.0899 189 78 191.91 78 195.5C78 199.09 75.0899 202 71.5 202H43.5C39.9101 202 37 199.09 37 195.5ZM87 195.5C87 191.91 89.9101 189 93.5 189H194.584C210.852 189 224 202.23 224 218.5C224 234.77 210.852 248 194.584 248C190.994 248 188.084 245.09 188.084 241.5C188.084 237.91 190.994 235 194.584 235C203.628 235 211 227.635 211 218.5C211 209.365 203.628 202 194.584 202H93.5C89.9101 202 87 199.09 87 195.5Z" fill="url(#paint2_linear_284_176)"/>
<defs>
<linearGradient id="paint0_linear_284_176" x1="79.9027" y1="1.3724" x2="140.193" y2="153.113" gradientUnits="userSpaceOnUse">
<stop stop-color="white"/>
<stop offset="0.708333" stop-color="#9DDCFF" stop-opacity="0.69"/>
</linearGradient>
<linearGradient id="paint1_linear_284_176" x1="119.193" y1="-50.1111" x2="202.515" y2="214.081" gradientUnits="userSpaceOnUse">
<stop stop-color="white"/>
<stop offset="0.713542" stop-color="#85C6EC" stop-opacity="0.71"/>
</linearGradient>
<linearGradient id="paint2_linear_284_176" x1="198.282" y1="99.365" x2="83.6891" y2="235.317" gradientUnits="userSpaceOnUse">
<stop stop-color="#F8F8F8"/>
<stop offset="1" stop-color="#DFDFDF"/>
</linearGradient>
</defs>
</svg>
