<svg width="312" height="157" viewBox="0 0 312 157" fill="none" xmlns="http://www.w3.org/2000/svg">
<path fill-rule="evenodd" clip-rule="evenodd" d="M267.694 43.7334C267.694 45.1903 267.619 46.6297 267.473 48.048C271.982 44.1404 277.871 41.7748 284.314 41.7748C298.5 41.7748 310 53.242 310 67.3874C310 81.5329 298.5 93 284.314 93H184.462C184.455 93 184.448 93 184.441 93C184.435 93 184.428 93 184.421 93H184.29C169.757 92.918 158 81.1453 158 66.6341C158 52.1762 169.67 40.4363 184.13 40.27C185.896 18.8416 203.896 2 225.841 2C248.956 2 267.694 20.6847 267.694 43.7334Z" fill="url(#paint0_linear_275_178)"/>
<mask id="mask0_275_178" style="mask-type:luminance" maskUnits="userSpaceOnUse" x="156" y="0" width="156" height="95">
<path d="M312 0H156V95H312V0Z" fill="white"/>
<path fill-rule="evenodd" clip-rule="evenodd" d="M267.694 43.7334C267.694 45.1903 267.619 46.6297 267.473 48.048C271.982 44.1404 277.871 41.7748 284.314 41.7748C298.5 41.7748 310 53.242 310 67.3874C310 81.5329 298.5 93 284.314 93H184.462C184.455 93 184.448 93 184.441 93C184.435 93 184.428 93 184.421 93H184.29C169.757 92.918 158 81.1453 158 66.6341C158 52.1762 169.67 40.4363 184.13 40.27C185.896 18.8416 203.896 2 225.841 2C248.956 2 267.694 20.6847 267.694 43.7334Z" fill="black"/>
</mask>
<g mask="url(#mask0_275_178)">
<path d="M267.473 48.048L265.483 47.8431L264.966 52.867L268.783 49.5594L267.473 48.048ZM184.29 93H182.29V95H184.29V93ZM184.29 93H186.29V91.011L184.301 91L184.29 93ZM184.13 40.27L184.153 42.2699L185.974 42.2489L186.123 40.4342L184.13 40.27ZM269.462 48.2529C269.615 46.7666 269.694 45.2588 269.694 43.7334H265.694C265.694 45.1217 265.623 46.4927 265.483 47.8431L269.462 48.2529ZM284.314 39.7748C277.372 39.7748 271.022 42.3254 266.163 46.5366L268.783 49.5594C272.942 45.9553 278.37 43.7748 284.314 43.7748V39.7748ZM312 67.3874C312 52.132 299.599 39.7748 284.314 39.7748V43.7748C297.401 43.7748 308 54.3519 308 67.3874H312ZM284.314 95C299.599 95 312 82.6428 312 67.3874H308C308 80.4229 297.401 91 284.314 91V95ZM284.314 91H184.462V95H284.314V91ZM184.441 95C184.445 95 184.449 95 184.453 95C184.456 95 184.459 95 184.462 95V91C184.458 91 184.454 91 184.45 91C184.447 91 184.444 91 184.441 91V95ZM184.421 95C184.424 95 184.427 95 184.43 95C184.433 95 184.437 95 184.441 95V91C184.439 91 184.436 91 184.432 91C184.429 91 184.425 91 184.421 91V95ZM184.421 91H184.29V95H184.421V91ZM156 66.6341C156 82.2515 168.651 94.912 184.279 95L184.301 91C170.862 90.925 160 80.0392 160 66.6341H156ZM184.107 38.2701C168.558 38.449 156 51.074 156 66.6341H160C160 53.2784 170.782 42.4236 184.153 42.2699L184.107 38.2701ZM225.841 0C202.851 0 183.987 17.6439 182.137 40.1058L186.123 40.4342C187.804 20.0394 204.941 4 225.841 4V0ZM269.694 43.7334C269.694 19.5747 250.055 0 225.841 0V4C247.856 4 265.694 21.7947 265.694 43.7334H269.694Z" fill="url(#paint1_linear_275_178)"/>
</g>
<path fill-rule="evenodd" clip-rule="evenodd" d="M182.882 73.0141C182.882 75.4233 182.758 77.8036 182.517 80.149C189.953 73.6871 199.664 69.7752 210.288 69.7752C233.68 69.7752 252.643 88.7383 252.643 112.13C252.643 135.523 233.68 154.486 210.288 154.486H45.6379C45.6256 154.486 45.6133 154.486 45.601 154.486C45.5887 154.486 45.5764 154.486 45.5641 154.486H45.3518C21.3863 154.352 2 134.882 2 110.885C2 86.9758 21.2441 67.5617 45.0878 67.2867C47.999 31.8508 77.6809 4 113.868 4C151.983 4 182.882 34.8987 182.882 73.0141Z" fill="url(#paint2_linear_275_178)"/>
<mask id="mask1_275_178" style="mask-type:luminance" maskUnits="userSpaceOnUse" x="0" y="2" width="255" height="155">
<path d="M255 2H0V157H255V2Z" fill="white"/>
<path fill-rule="evenodd" clip-rule="evenodd" d="M182.882 73.0141C182.882 75.4233 182.758 77.8036 182.517 80.149C189.953 73.6871 199.664 69.7752 210.288 69.7752C233.68 69.7752 252.643 88.7383 252.643 112.13C252.643 135.523 233.68 154.486 210.288 154.486H45.6379C45.6256 154.486 45.6133 154.486 45.601 154.486C45.5887 154.486 45.5764 154.486 45.5641 154.486H45.3518C21.3863 154.352 2 134.882 2 110.885C2 86.9758 21.2441 67.5617 45.0878 67.2867C47.999 31.8508 77.6809 4 113.868 4C151.983 4 182.882 34.8987 182.882 73.0141Z" fill="black"/>
</mask>
<g mask="url(#mask1_275_178)">
<path d="M182.517 80.149L180.528 79.9447L180.011 84.9771L183.829 81.6586L182.517 80.149ZM45.3518 154.486H43.3518V156.486H45.3518V154.486ZM45.3518 154.486L47.3518 154.485V152.496L45.363 152.485L45.3518 154.486ZM45.0878 67.2867L45.1109 69.2866L46.932 69.2655L47.0811 67.4504L45.0878 67.2867ZM184.507 80.3534C184.755 77.9401 184.882 75.4916 184.882 73.0141H180.882C180.882 75.3549 180.762 77.667 180.528 79.9447L184.507 80.3534ZM210.288 67.7752C199.163 67.7752 188.991 71.8733 181.206 78.6395L183.829 81.6586C190.915 75.5008 200.164 71.7752 210.288 71.7752V67.7752ZM254.643 112.13C254.643 87.6337 234.785 67.7752 210.288 67.7752V71.7752C232.576 71.7752 250.643 89.843 250.643 112.13H254.643ZM210.288 156.486C234.785 156.486 254.643 136.627 254.643 112.13H250.643C250.643 134.418 232.576 152.486 210.288 152.486V156.486ZM210.288 152.486H45.6379V156.486H210.288V152.486ZM45.601 156.486C45.6079 156.486 45.6146 156.486 45.6207 156.486C45.6269 156.486 45.6324 156.486 45.6379 156.486V152.486C45.631 152.486 45.6242 152.486 45.6182 152.486C45.6119 152.486 45.6064 152.486 45.601 152.486V156.486ZM45.5641 156.486C45.5695 156.486 45.5751 156.486 45.5813 156.486C45.5873 156.486 45.5941 156.486 45.601 156.486V152.486C45.5956 152.486 45.59 152.486 45.5838 152.486C45.5778 152.486 45.571 152.486 45.5641 152.486V156.486ZM45.5641 152.486H45.3518V156.486H45.5641V152.486ZM0 110.885C0 135.983 20.2756 156.345 45.3407 156.485L45.363 152.485C22.4971 152.357 4 133.781 4 110.885H0ZM45.0647 65.2868C20.1268 65.5744 0 85.879 0 110.885H4C4 88.0727 22.3614 69.5489 45.1109 69.2866L45.0647 65.2868ZM113.868 2C76.6312 2 46.0902 30.6581 43.0945 67.1229L47.0811 67.4504C49.9077 33.0436 78.7306 6 113.868 6V2ZM184.882 73.0141C184.882 33.7941 153.088 2 113.868 2V6C150.879 6 180.882 36.0033 180.882 73.0141H184.882Z" fill="url(#paint3_linear_275_178)"/>
</g>
<defs>
<linearGradient id="paint0_linear_275_178" x1="205.243" y1="1.6205" x2="241.625" y2="93.451" gradientUnits="userSpaceOnUse">
<stop stop-color="white"/>
<stop offset="0.708333" stop-color="#9DDCFF" stop-opacity="0.69"/>
</linearGradient>
<linearGradient id="paint1_linear_275_178" x1="229.07" y1="-29.512" x2="279.338" y2="130.329" gradientUnits="userSpaceOnUse">
<stop stop-color="white"/>
<stop offset="0.713542" stop-color="#85C6EC" stop-opacity="0.71"/>
</linearGradient>
<linearGradient id="paint2_linear_275_178" x1="79.9027" y1="3.3724" x2="140.193" y2="155.113" gradientUnits="userSpaceOnUse">
<stop stop-color="white"/>
<stop offset="0.708333" stop-color="#9DDCFF" stop-opacity="0.69"/>
</linearGradient>
<linearGradient id="paint3_linear_275_178" x1="119.193" y1="-48.1111" x2="202.515" y2="216.081" gradientUnits="userSpaceOnUse">
<stop stop-color="white"/>
<stop offset="0.713542" stop-color="#85C6EC" stop-opacity="0.71"/>
</linearGradient>
</defs>
</svg>
