<svg width="255" height="236" viewBox="0 0 255 236" fill="none" xmlns="http://www.w3.org/2000/svg">
<path d="M110.957 113.493L77.5374 171.033C76.3758 173.033 77.8187 175.54 80.1316 175.54H90.999C91.762 175.54 92.244 176.36 91.873 177.026L62.396 230.024C60.7365 233.007 64.5545 236.003 67.0578 233.681L150.6 156.2C152.599 154.345 151.287 151 148.56 151H137.633C136.864 151 136.382 150.167 136.767 149.501L155.794 116.498C156.947 114.498 155.504 112 153.195 112H113.551C112.482 112 111.494 112.569 110.957 113.493Z" fill="url(#paint0_linear_289_174)" stroke="url(#paint1_linear_289_174)" stroke-width="2"/>
<path fill-rule="evenodd" clip-rule="evenodd" d="M182.882 71.0141C182.882 73.4233 182.758 75.8036 182.517 78.149C189.953 71.6871 199.664 67.7752 210.288 67.7752C233.68 67.7752 252.643 86.7383 252.643 110.13C252.643 133.523 233.68 152.486 210.288 152.486H45.6379C45.6256 152.486 45.6133 152.486 45.601 152.486C45.5887 152.486 45.5764 152.486 45.5641 152.486H45.3518C21.3863 152.352 2 132.882 2 108.885C2 84.9758 21.2441 65.5617 45.0878 65.2867C47.999 29.8508 77.6809 2 113.868 2C151.983 2 182.882 32.8987 182.882 71.0141Z" fill="url(#paint2_linear_289_174)"/>
<mask id="mask0_289_174" style="mask-type:luminance" maskUnits="userSpaceOnUse" x="0" y="0" width="255" height="155">
<path d="M255 0H0V155H255V0Z" fill="white"/>
<path fill-rule="evenodd" clip-rule="evenodd" d="M182.882 71.0141C182.882 73.4233 182.758 75.8036 182.517 78.149C189.953 71.6871 199.664 67.7752 210.288 67.7752C233.68 67.7752 252.643 86.7383 252.643 110.13C252.643 133.523 233.68 152.486 210.288 152.486H45.6379C45.6256 152.486 45.6133 152.486 45.601 152.486C45.5887 152.486 45.5764 152.486 45.5641 152.486H45.3518C21.3863 152.352 2 132.882 2 108.885C2 84.9758 21.2441 65.5617 45.0878 65.2867C47.999 29.8508 77.6809 2 113.868 2C151.983 2 182.882 32.8987 182.882 71.0141Z" fill="black"/>
</mask>
<g mask="url(#mask0_289_174)">
<path d="M182.517 78.149L180.528 77.9447L180.011 82.9771L183.829 79.6586L182.517 78.149ZM45.3518 152.486H43.3518V154.486H45.3518V152.486ZM45.3518 152.486L47.3518 152.485V150.496L45.363 150.485L45.3518 152.486ZM45.0878 65.2867L45.1109 67.2866L46.932 67.2655L47.0811 65.4504L45.0878 65.2867ZM184.507 78.3534C184.755 75.9401 184.882 73.4916 184.882 71.0141H180.882C180.882 73.3549 180.762 75.667 180.528 77.9447L184.507 78.3534ZM210.288 65.7752C199.163 65.7752 188.991 69.8733 181.206 76.6395L183.829 79.6586C190.915 73.5008 200.164 69.7752 210.288 69.7752V65.7752ZM254.643 110.13C254.643 85.6337 234.785 65.7752 210.288 65.7752V69.7752C232.576 69.7752 250.643 87.8429 250.643 110.13H254.643ZM210.288 154.486C234.785 154.486 254.643 134.627 254.643 110.13H250.643C250.643 132.418 232.576 150.486 210.288 150.486V154.486ZM210.288 150.486H45.6379V154.486H210.288V150.486ZM45.601 154.486C45.6079 154.486 45.6146 154.486 45.6207 154.486C45.6269 154.486 45.6324 154.486 45.6379 154.486V150.486C45.631 150.486 45.6242 150.486 45.6182 150.486C45.6119 150.486 45.6064 150.486 45.601 150.486V154.486ZM45.5641 154.486C45.5695 154.486 45.5751 154.486 45.5813 154.486C45.5873 154.486 45.5941 154.486 45.601 154.486V150.486C45.5956 150.486 45.59 150.486 45.5838 150.486C45.5778 150.486 45.571 150.486 45.5641 150.486V154.486ZM45.5641 150.486H45.3518V154.486H45.5641V150.486ZM0 108.885C0 133.983 20.2756 154.345 45.3407 154.485L45.363 150.485C22.4971 150.357 4 131.781 4 108.885H0ZM45.0647 63.2868C20.1268 63.5744 0 83.879 0 108.885H4C4 86.0727 22.3614 67.5489 45.1109 67.2866L45.0647 63.2868ZM113.868 0C76.6312 0 46.0902 28.6581 43.0945 65.1229L47.0811 65.4504C49.9077 31.0436 78.7306 4 113.868 4V0ZM184.882 71.0141C184.882 31.7941 153.088 0 113.868 0V4C150.879 4 180.882 34.0033 180.882 71.0141H184.882Z" fill="url(#paint3_linear_289_174)" fill-opacity="0.75"/>
</g>
<path fill-rule="evenodd" clip-rule="evenodd" d="M182.882 71.0141C182.882 73.4233 182.758 75.8036 182.517 78.149C189.953 71.6871 199.664 67.7752 210.288 67.7752C233.68 67.7752 252.643 86.7383 252.643 110.13C252.643 133.523 233.68 152.486 210.288 152.486H45.6531C45.6358 152.486 45.6184 152.486 45.601 152.486C45.5836 152.486 45.5662 152.486 45.5488 152.486H45.3518C21.3863 152.352 2 132.882 2 108.885C2 84.9759 21.2441 65.5617 45.0878 65.2867C47.999 29.8508 77.6809 2 113.868 2C151.983 2 182.882 32.8987 182.882 71.0141Z" fill="url(#paint4_linear_289_174)"/>
<defs>
<linearGradient id="paint0_linear_289_174" x1="132.641" y1="122.179" x2="63.5996" y2="223.194" gradientUnits="userSpaceOnUse">
<stop offset="0.182844" stop-color="#FFE600"/>
<stop offset="0.980542" stop-color="#F09000"/>
</linearGradient>
<linearGradient id="paint1_linear_289_174" x1="85.157" y1="78.5" x2="134.679" y2="283.99" gradientUnits="userSpaceOnUse">
<stop offset="0.14688" stop-color="#FFE600"/>
<stop offset="0.938214" stop-color="#F09000"/>
</linearGradient>
<linearGradient id="paint2_linear_289_174" x1="81.5248" y1="17.5" x2="161.025" y2="147" gradientUnits="userSpaceOnUse">
<stop stop-color="#8AA1B7"/>
<stop offset="1" stop-color="#4B6176" stop-opacity="0.53"/>
</linearGradient>
<linearGradient id="paint3_linear_289_174" x1="162.525" y1="202.5" x2="84.5247" y2="-17.5" gradientUnits="userSpaceOnUse">
<stop stop-color="#8AA1B7"/>
<stop offset="1" stop-color="#4B6176" stop-opacity="0.5"/>
</linearGradient>
<linearGradient id="paint4_linear_289_174" x1="161.025" y1="205.5" x2="161.025" y2="117.5" gradientUnits="userSpaceOnUse">
<stop stop-color="#FFE600"/>
<stop offset="1" stop-color="#FFD600" stop-opacity="0"/>
</linearGradient>
</defs>
</svg>
