<svg width="285" height="231" viewBox="0 0 285 231" fill="none" xmlns="http://www.w3.org/2000/svg">
<g filter="url(#filter0_d_282_188)">
<path d="M67.6554 196.352L67.6554 196.352C64.403 195.48 61.0599 197.411 60.1884 200.663L54.578 221.602C53.7065 224.854 55.6366 228.197 58.889 229.069L58.889 229.069C62.1414 229.94 65.4845 228.01 66.356 224.757L71.9665 203.819C72.8379 200.566 70.9078 197.223 67.6554 196.352Z" fill="url(#paint0_linear_282_188)"/>
<path d="M107.167 196.352L107.167 196.352C103.915 195.48 100.572 197.411 99.7001 200.663L94.0896 221.602C93.2181 224.854 95.1482 228.197 98.4006 229.069L98.4006 229.069C101.653 229.94 104.996 228.01 105.868 224.757L111.478 203.819C112.35 200.566 110.419 197.223 107.167 196.352Z" fill="url(#paint1_linear_282_188)"/>
<path d="M146.679 196.352L146.679 196.352C143.427 195.48 140.084 197.411 139.212 200.663L133.602 221.602C132.73 224.854 134.66 228.197 137.913 229.069L137.913 229.069C141.165 229.94 144.508 228.01 145.38 224.757L150.99 203.819C151.862 200.566 149.931 197.223 146.679 196.352Z" fill="url(#paint2_linear_282_188)"/>
<path d="M186.191 196.352L186.191 196.352C182.939 195.48 179.596 197.411 178.724 200.663L173.114 221.602C172.242 224.854 174.172 228.197 177.425 229.069L177.425 229.069C180.677 229.94 184.02 228.01 184.892 224.757L190.502 203.819C191.374 200.566 189.443 197.223 186.191 196.352Z" fill="url(#paint3_linear_282_188)"/>
<path d="M89.3326 147.578L89.3326 147.578C86.0802 146.706 82.7371 148.637 81.8657 151.889L76.2552 172.828C75.3837 176.08 77.3138 179.423 80.5662 180.295L80.5662 180.295C83.8186 181.166 87.1617 179.236 88.0332 175.984L93.6437 155.045C94.5151 151.792 92.585 148.449 89.3326 147.578Z" fill="url(#paint4_linear_282_188)"/>
<path d="M128.845 147.578L128.845 147.578C125.593 146.706 122.25 148.637 121.378 151.889L115.768 172.828C114.896 176.08 116.826 179.423 120.079 180.295L120.079 180.295C123.331 181.166 126.674 179.236 127.546 175.984L133.156 155.045C134.028 151.792 132.097 148.449 128.845 147.578Z" fill="url(#paint5_linear_282_188)"/>
<path d="M168.357 147.578L168.357 147.578C165.105 146.706 161.762 148.637 160.89 151.889L155.28 172.828C154.408 176.08 156.338 179.423 159.591 180.295L159.591 180.295C162.843 181.166 166.186 179.236 167.058 175.984L172.668 155.045C173.54 151.792 171.609 148.449 168.357 147.578Z" fill="url(#paint6_linear_282_188)"/>
<path d="M207.868 147.578L207.868 147.578C204.616 146.706 201.273 148.637 200.401 151.889L194.791 172.828C193.919 176.08 195.849 179.423 199.102 180.295L199.102 180.295C202.354 181.166 205.697 179.236 206.569 175.984L212.179 155.045C213.051 151.792 211.12 148.449 207.868 147.578Z" fill="url(#paint7_linear_282_188)"/>
<path fill-rule="evenodd" clip-rule="evenodd" d="M197.882 82.0141C197.882 84.4233 197.758 86.8036 197.517 89.149C204.953 82.6871 214.664 78.7752 225.288 78.7752C248.68 78.7752 267.643 97.7383 267.643 121.13C267.643 144.523 248.68 163.486 225.288 163.486H60.6379C60.6256 163.486 60.6133 163.486 60.601 163.486C60.5887 163.486 60.5764 163.486 60.5641 163.486H60.3518C36.3863 163.352 17 143.882 17 119.885C17 95.9758 36.2441 76.5617 60.0878 76.2867C62.999 40.8508 92.6809 13 128.868 13C166.983 13 197.882 43.8987 197.882 82.0141Z" fill="url(#paint8_linear_282_188)"/>
<mask id="mask0_282_188" style="mask-type:luminance" maskUnits="userSpaceOnUse" x="15" y="11" width="255" height="155">
<path d="M270 11H15V166H270V11Z" fill="white"/>
<path fill-rule="evenodd" clip-rule="evenodd" d="M197.882 82.0141C197.882 84.4233 197.758 86.8036 197.517 89.149C204.953 82.6871 214.664 78.7752 225.288 78.7752C248.68 78.7752 267.643 97.7383 267.643 121.13C267.643 144.523 248.68 163.486 225.288 163.486H60.6379C60.6256 163.486 60.6133 163.486 60.601 163.486C60.5887 163.486 60.5764 163.486 60.5641 163.486H60.3518C36.3863 163.352 17 143.882 17 119.885C17 95.9758 36.2441 76.5617 60.0878 76.2867C62.999 40.8508 92.6809 13 128.868 13C166.983 13 197.882 43.8987 197.882 82.0141Z" fill="black"/>
</mask>
<g mask="url(#mask0_282_188)">
<path d="M197.517 89.149L195.528 88.9447L195.011 93.9771L198.829 90.6586L197.517 89.149ZM60.3518 163.486H58.3518V165.486H60.3518V163.486ZM60.3518 163.486L62.3518 163.485V161.496L60.363 161.485L60.3518 163.486ZM60.0878 76.2867L60.1109 78.2866L61.932 78.2655L62.0811 76.4504L60.0878 76.2867ZM199.507 89.3534C199.755 86.9401 199.882 84.4916 199.882 82.0141H195.882C195.882 84.3549 195.762 86.667 195.528 88.9447L199.507 89.3534ZM225.288 76.7752C214.163 76.7752 203.991 80.8733 196.206 87.6395L198.829 90.6586C205.915 84.5008 215.164 80.7752 225.288 80.7752V76.7752ZM269.643 121.13C269.643 96.6337 249.785 76.7752 225.288 76.7752V80.7752C247.576 80.7752 265.643 98.8429 265.643 121.13H269.643ZM225.288 165.486C249.785 165.486 269.643 145.627 269.643 121.13H265.643C265.643 143.418 247.576 161.486 225.288 161.486V165.486ZM225.288 161.486H60.6379V165.486H225.288V161.486ZM60.601 165.486C60.6079 165.486 60.6146 165.486 60.6207 165.486C60.6269 165.486 60.6324 165.486 60.6379 165.486V161.486C60.631 161.486 60.6242 161.486 60.6182 161.486C60.6119 161.486 60.6064 161.486 60.601 161.486V165.486ZM60.5641 165.486C60.5695 165.486 60.5751 165.486 60.5813 165.486C60.5873 165.486 60.5941 165.486 60.601 165.486V161.486C60.5956 161.486 60.59 161.486 60.5838 161.486C60.5778 161.486 60.571 161.486 60.5641 161.486V165.486ZM60.5641 161.486H60.3518V165.486H60.5641V161.486ZM15 119.885C15 144.983 35.2756 165.345 60.3407 165.485L60.363 161.485C37.4971 161.357 19 142.781 19 119.885H15ZM60.0647 74.2868C35.1268 74.5744 15 94.879 15 119.885H19C19 97.0727 37.3614 78.5489 60.1109 78.2866L60.0647 74.2868ZM128.868 11C91.6312 11 61.0902 39.6581 58.0945 76.1229L62.0811 76.4504C64.9077 42.0436 93.7306 15 128.868 15V11ZM199.882 82.0141C199.882 42.7941 168.088 11 128.868 11V15C165.879 15 195.882 45.0033 195.882 82.0141H199.882Z" fill="url(#paint9_linear_282_188)"/>
</g>
</g>
<defs>
<filter id="filter0_d_282_188" x="0" y="0" width="284.643" height="248.278" filterUnits="userSpaceOnUse" color-interpolation-filters="sRGB">
<feFlood flood-opacity="0" result="BackgroundImageFix"/>
<feColorMatrix in="SourceAlpha" type="matrix" values="0 0 0 0 0 0 0 0 0 0 0 0 0 0 0 0 0 0 127 0" result="hardAlpha"/>
<feOffset dy="4"/>
<feGaussianBlur stdDeviation="7.5"/>
<feComposite in2="hardAlpha" operator="out"/>
<feColorMatrix type="matrix" values="0 0 0 0 0 0 0 0 0 0 0 0 0 0 0 0 0 0 0.1 0"/>
<feBlend mode="normal" in2="BackgroundImageFix" result="effect1_dropShadow_282_188"/>
<feBlend mode="normal" in="SourceGraphic" in2="effect1_dropShadow_282_188" result="shape"/>
</filter>
<linearGradient id="paint0_linear_282_188" x1="55.3607" y1="223.915" x2="72.4925" y2="201.855" gradientUnits="userSpaceOnUse">
<stop stop-color="#8DA3C3"/>
<stop offset="1" stop-color="#A1BADE"/>
</linearGradient>
<linearGradient id="paint1_linear_282_188" x1="94.8725" y1="223.915" x2="112.005" y2="201.856" gradientUnits="userSpaceOnUse">
<stop stop-color="#8DA3C4"/>
<stop offset="1" stop-color="#A1BADE"/>
</linearGradient>
<linearGradient id="paint2_linear_282_188" x1="134.384" y1="223.915" x2="151.517" y2="201.856" gradientUnits="userSpaceOnUse">
<stop stop-color="#8DA3C4"/>
<stop offset="1" stop-color="#A1BADE"/>
</linearGradient>
<linearGradient id="paint3_linear_282_188" x1="173.896" y1="223.915" x2="191.029" y2="201.856" gradientUnits="userSpaceOnUse">
<stop stop-color="#8DA3C4"/>
<stop offset="1" stop-color="#A1BADE"/>
</linearGradient>
<linearGradient id="paint4_linear_282_188" x1="77.0379" y1="175.141" x2="94.1698" y2="153.081" gradientUnits="userSpaceOnUse">
<stop stop-color="#8DA3C3"/>
<stop offset="1" stop-color="#A1BADE"/>
</linearGradient>
<linearGradient id="paint5_linear_282_188" x1="116.549" y1="175.141" x2="133.682" y2="153.081" gradientUnits="userSpaceOnUse">
<stop stop-color="#8DA3C3"/>
<stop offset="1" stop-color="#A1BADE"/>
</linearGradient>
<linearGradient id="paint6_linear_282_188" x1="156.062" y1="175.141" x2="173.194" y2="153.081" gradientUnits="userSpaceOnUse">
<stop stop-color="#8DA3C3"/>
<stop offset="1" stop-color="#A1BADE"/>
</linearGradient>
<linearGradient id="paint7_linear_282_188" x1="195.573" y1="175.141" x2="212.706" y2="153.082" gradientUnits="userSpaceOnUse">
<stop stop-color="#8DA3C4"/>
<stop offset="1" stop-color="#A1BADE"/>
</linearGradient>
<linearGradient id="paint8_linear_282_188" x1="94.9027" y1="12.3724" x2="155.193" y2="164.113" gradientUnits="userSpaceOnUse">
<stop stop-color="white"/>
<stop offset="0.708333" stop-color="#91C1DD" stop-opacity="0.69"/>
</linearGradient>
<linearGradient id="paint9_linear_282_188" x1="134.193" y1="-39.1111" x2="217.515" y2="225.081" gradientUnits="userSpaceOnUse">
<stop stop-color="white"/>
<stop offset="0.713542" stop-color="#91C1DD" stop-opacity="0.71"/>
</linearGradient>
</defs>
</svg>
