<svg width="255" height="247" viewBox="0 0 255 247" fill="none" xmlns="http://www.w3.org/2000/svg">
<path fill-rule="evenodd" clip-rule="evenodd" d="M162.461 109C161.628 109 160.952 109.675 160.952 110.509V115.241L157.509 110.893C156.992 110.24 156.043 110.129 155.39 110.647C154.737 111.164 154.627 112.113 155.144 112.766L160.952 120.102V122.873L157.51 118.525C156.992 117.872 156.043 117.762 155.39 118.279C154.737 118.796 154.627 119.745 155.144 120.398L160.952 127.734V140.763L151.297 131.108L150.216 121.813C150.12 120.985 149.371 120.392 148.544 120.489C147.716 120.585 147.123 121.334 147.219 122.161L147.859 127.67L145.9 125.71L144.819 116.416C144.723 115.588 143.974 114.995 143.147 115.092C142.319 115.188 141.726 115.937 141.822 116.764L142.462 122.273L139.559 119.37C138.97 118.781 138.015 118.781 137.425 119.37C136.836 119.959 136.836 120.915 137.425 121.504L140.399 124.477L134.765 123.822C133.937 123.726 133.188 124.319 133.092 125.147C132.996 125.974 133.589 126.723 134.416 126.819L143.836 127.914L145.796 129.874L140.162 129.219C139.334 129.123 138.585 129.716 138.489 130.544C138.393 131.371 138.986 132.12 139.813 132.216L149.233 133.311L158.874 142.952H145.108L137.772 137.144C137.119 136.627 136.17 136.737 135.653 137.39C135.136 138.043 135.246 138.992 135.899 139.51L140.247 142.952H137.476L130.14 137.144C129.486 136.627 128.537 136.737 128.02 137.39C127.503 138.043 127.613 138.992 128.267 139.51L132.615 142.952H128.509C127.675 142.952 127 143.628 127 144.461C127 145.294 127.675 145.97 128.509 145.97H132.713L128.267 149.49C127.613 150.008 127.503 150.957 128.02 151.61C128.537 152.263 129.486 152.373 130.14 151.856L137.574 145.97H140.346L135.899 149.49C135.246 150.008 135.136 150.957 135.653 151.61C136.17 152.263 137.119 152.373 137.772 151.856L145.207 145.97H158.841L149.108 155.703L139.813 156.784C138.985 156.88 138.392 157.629 138.489 158.456C138.585 159.284 139.334 159.877 140.161 159.781L145.67 159.141L143.711 161.1L134.416 162.181C133.588 162.277 132.995 163.026 133.091 163.853C133.188 164.681 133.937 165.274 134.764 165.178L140.273 164.538L137.37 167.441C136.781 168.03 136.781 168.986 137.37 169.575C137.959 170.164 138.914 170.164 139.504 169.575L142.477 166.602L141.822 172.236C141.726 173.063 142.319 173.812 143.147 173.908C143.974 174.005 144.723 173.412 144.819 172.584L145.914 163.164L147.874 161.205L147.219 166.839C147.123 167.666 147.716 168.415 148.544 168.511C149.371 168.608 150.12 168.015 150.216 167.187L151.311 157.767L160.952 148.126V161.892L155.144 169.228C154.627 169.881 154.737 170.83 155.39 171.347C156.043 171.865 156.992 171.754 157.51 171.101L160.952 166.753V169.524L155.144 176.86C154.627 177.514 154.737 178.462 155.39 178.98C156.043 179.497 156.992 179.387 157.51 178.733L160.952 174.385V178.491C160.952 179.325 161.628 180 162.461 180C163.294 180 163.97 179.325 163.97 178.491V174.287L167.49 178.733C168.008 179.387 168.957 179.497 169.61 178.98C170.263 178.462 170.373 177.514 169.856 176.86L163.97 169.426V166.654L167.49 171.101C168.008 171.754 168.957 171.865 169.61 171.347C170.263 170.83 170.373 169.881 169.856 169.228L163.97 161.793V148.048L173.246 157.324L174.341 166.744C174.437 167.572 175.186 168.165 176.014 168.068C176.841 167.972 177.434 167.223 177.338 166.396L176.683 160.762L178.643 162.721L179.738 172.141C179.834 172.969 180.583 173.562 181.411 173.465C182.238 173.369 182.831 172.62 182.735 171.793L182.08 166.159L185.496 169.575C186.086 170.164 187.041 170.164 187.63 169.575C188.219 168.985 188.219 168.03 187.63 167.441L184.284 164.095L189.793 164.735C190.621 164.831 191.37 164.238 191.466 163.41C191.562 162.583 190.969 161.834 190.141 161.738L180.847 160.657L178.887 158.698L184.396 159.338C185.224 159.434 185.973 158.841 186.069 158.013C186.165 157.186 185.572 156.437 184.744 156.341L175.45 155.26L166.159 145.97H179.167L186.601 151.856C187.255 152.373 188.204 152.263 188.721 151.61C189.238 150.957 189.128 150.008 188.475 149.49L184.028 145.97H186.799L194.234 151.856C194.887 152.373 195.836 152.263 196.353 151.61C196.871 150.957 196.76 150.008 196.107 149.49L191.66 145.97H196.491C197.325 145.97 198 145.294 198 144.461C198 143.628 197.325 142.952 196.491 142.952H191.759L196.107 139.51C196.76 138.992 196.871 138.043 196.353 137.39C195.836 136.737 194.887 136.627 194.234 137.144L186.898 142.952H184.126L188.475 139.51C189.128 138.992 189.238 138.043 188.721 137.39C188.204 136.737 187.255 136.627 186.601 137.144L179.265 142.952H166.126L175.324 133.754L184.744 132.659C185.572 132.563 186.165 131.814 186.068 130.987C185.972 130.159 185.223 129.566 184.396 129.662L178.762 130.317L180.721 128.357L190.141 127.262C190.969 127.166 191.562 126.417 191.465 125.59C191.369 124.762 190.62 124.169 189.793 124.265L184.159 124.92L187.575 121.504C188.164 120.915 188.164 119.959 187.575 119.37C186.985 118.781 186.03 118.781 185.441 119.37L182.095 122.716L182.735 117.207C182.831 116.38 182.238 115.631 181.411 115.535C180.583 115.438 179.834 116.031 179.738 116.859L178.658 126.153L176.698 128.113L177.338 122.604C177.434 121.777 176.841 121.028 176.014 120.932C175.186 120.835 174.437 121.428 174.341 122.256L173.261 131.55L163.97 140.841V127.833L169.856 120.398C170.373 119.745 170.263 118.796 169.61 118.279C168.957 117.762 168.008 117.872 167.49 118.525L163.97 122.972V120.2L169.856 112.766C170.373 112.113 170.263 111.164 169.61 110.647C168.957 110.129 168.008 110.24 167.49 110.893L163.97 115.339V110.509C163.97 109.675 163.294 109 162.461 109Z" fill="url(#paint0_linear_6_13)"/>
<path fill-rule="evenodd" clip-rule="evenodd" d="M130.473 198C129.898 198 129.432 198.466 129.432 199.041V202.307L127.056 199.306C126.699 198.855 126.044 198.779 125.593 199.136C125.142 199.493 125.066 200.148 125.423 200.599L129.432 205.662V207.575L127.056 204.574C126.699 204.123 126.044 204.047 125.593 204.404C125.142 204.761 125.066 205.416 125.423 205.867L129.432 210.929V219.921L122.768 213.257L122.023 206.843C121.956 206.272 121.439 205.862 120.868 205.929C120.297 205.995 119.888 206.512 119.954 207.083L120.396 210.885L119.043 209.533L118.298 203.118C118.232 202.547 117.715 202.138 117.143 202.204C116.572 202.27 116.163 202.787 116.229 203.359L116.671 207.16L114.668 205.157C114.261 204.75 113.602 204.75 113.195 205.157C112.788 205.563 112.788 206.223 113.195 206.629L115.247 208.681L111.359 208.229C110.787 208.163 110.271 208.572 110.204 209.143C110.138 209.715 110.547 210.232 111.118 210.298L117.619 211.053L118.972 212.406L115.083 211.954C114.512 211.888 113.995 212.297 113.929 212.868C113.862 213.439 114.272 213.956 114.843 214.023L121.344 214.778L127.997 221.432H118.497L113.434 217.423C112.983 217.066 112.329 217.142 111.972 217.593C111.615 218.044 111.691 218.699 112.142 219.056L115.142 221.432H113.23L108.167 217.423C107.716 217.066 107.061 217.142 106.704 217.593C106.347 218.044 106.423 218.699 106.874 219.056L109.875 221.432H107.041C106.466 221.432 106 221.898 106 222.473C106 223.048 106.466 223.514 107.041 223.514H109.943L106.874 225.944C106.423 226.301 106.347 226.956 106.704 227.407C107.061 227.858 107.716 227.934 108.167 227.577L113.298 223.514H115.21L112.142 225.944C111.691 226.301 111.615 226.956 111.972 227.407C112.329 227.858 112.983 227.934 113.434 227.577L118.565 223.514H127.975L121.257 230.232L114.843 230.977C114.272 231.044 113.862 231.561 113.929 232.132C113.995 232.703 114.512 233.112 115.083 233.046L118.885 232.604L117.533 233.957L111.118 234.702C110.547 234.768 110.138 235.285 110.204 235.857C110.27 236.428 110.787 236.837 111.358 236.771L115.16 236.329L113.157 238.333C112.75 238.739 112.75 239.398 113.157 239.805C113.563 240.212 114.223 240.212 114.629 239.805L116.681 237.753L116.229 241.641C116.163 242.213 116.572 242.73 117.143 242.796C117.715 242.862 118.231 242.453 118.298 241.882L119.053 235.381L120.406 234.029L119.954 237.917C119.888 238.488 120.297 239.005 120.868 239.071C121.439 239.138 121.956 238.728 122.023 238.157L122.778 231.656L129.432 225.003V234.503L125.423 239.566C125.066 240.017 125.142 240.671 125.593 241.028C126.044 241.385 126.699 241.309 127.056 240.858L129.432 237.858V239.77L125.423 244.833C125.066 245.284 125.142 245.939 125.593 246.296C126.044 246.653 126.699 246.577 127.056 246.126L129.432 243.125V245.959C129.432 246.534 129.898 247 130.473 247C131.048 247 131.514 246.534 131.514 245.959V243.057L133.944 246.126C134.301 246.577 134.956 246.653 135.407 246.296C135.858 245.939 135.934 245.284 135.577 244.833L131.514 239.702V237.79L133.944 240.858C134.301 241.309 134.956 241.385 135.407 241.028C135.858 240.671 135.934 240.017 135.577 239.566L131.514 234.435V224.949L137.916 231.351L138.672 237.851C138.738 238.423 139.255 238.832 139.826 238.766C140.398 238.699 140.807 238.182 140.74 237.611L140.289 233.723L141.641 235.075L142.397 241.576C142.463 242.147 142.98 242.557 143.551 242.49C144.122 242.424 144.531 241.907 144.465 241.336L144.013 237.448L146.371 239.805C146.777 240.212 147.437 240.212 147.843 239.805C148.25 239.398 148.25 238.739 147.843 238.333L145.534 236.023L149.336 236.465C149.907 236.531 150.424 236.122 150.49 235.551C150.557 234.98 150.148 234.463 149.576 234.396L143.162 233.651L141.809 232.298L145.611 232.74C146.182 232.807 146.699 232.397 146.766 231.826C146.832 231.255 146.423 230.738 145.852 230.672L139.437 229.926L133.025 223.514H142.002L147.133 227.577C147.584 227.934 148.239 227.858 148.596 227.407C148.953 226.956 148.877 226.301 148.426 225.944L145.357 223.514H147.27L152.401 227.577C152.852 227.934 153.507 227.858 153.864 227.407C154.221 226.956 154.144 226.301 153.694 225.944L150.625 223.514H153.959C154.534 223.514 155 223.048 155 222.473C155 221.898 154.534 221.432 153.959 221.432H150.693L153.694 219.056C154.144 218.699 154.221 218.044 153.864 217.593C153.507 217.142 152.852 217.066 152.401 217.423L147.338 221.432H145.425L148.426 219.056C148.877 218.699 148.953 218.044 148.596 217.593C148.239 217.142 147.584 217.066 147.133 217.423L142.07 221.432H133.003L139.351 215.084L145.851 214.328C146.423 214.262 146.832 213.745 146.766 213.174C146.699 212.603 146.182 212.193 145.611 212.26L141.723 212.712L143.075 211.359L149.576 210.604C150.147 210.537 150.557 210.02 150.49 209.449C150.424 208.878 149.907 208.469 149.336 208.535L145.448 208.987L147.805 206.629C148.212 206.223 148.212 205.563 147.805 205.157C147.398 204.75 146.739 204.75 146.332 205.157L144.023 207.466L144.465 203.664C144.531 203.093 144.122 202.576 143.551 202.51C142.98 202.443 142.463 202.853 142.396 203.424L141.651 209.838L140.299 211.191L140.74 207.389C140.807 206.818 140.397 206.301 139.826 206.234C139.255 206.168 138.738 206.577 138.672 207.149L137.926 213.563L131.514 219.975V210.997L135.577 205.867C135.934 205.416 135.858 204.761 135.407 204.404C134.956 204.047 134.301 204.123 133.944 204.574L131.514 207.643V205.73L135.577 200.599C135.934 200.148 135.858 199.493 135.407 199.136C134.956 198.779 134.301 198.855 133.944 199.306L131.514 202.375V199.041C131.514 198.466 131.048 198 130.473 198Z" fill="url(#paint1_linear_6_13)"/>
<path fill-rule="evenodd" clip-rule="evenodd" d="M85.468 139C84.7752 139 84.2138 139.561 84.2138 140.254V144.186L81.353 140.573C80.9231 140.03 80.1346 139.938 79.5917 140.368C79.0489 140.798 78.9572 141.587 79.3871 142.129L84.2138 148.226V150.529L81.353 146.915C80.9232 146.373 80.1346 146.281 79.5918 146.711C79.0489 147.141 78.9573 147.929 79.3871 148.472L84.2138 154.568V165.395L76.1902 157.371L75.2926 149.648C75.2126 148.96 74.5903 148.467 73.9025 148.547C73.2147 148.627 72.7219 149.249 72.8018 149.937L73.3338 154.515L71.7053 152.886L70.8077 145.163C70.7278 144.475 70.1054 143.982 69.4176 144.062C68.7298 144.142 68.237 144.764 68.317 145.452L68.8489 150.03L66.4365 147.617C65.9469 147.128 65.153 147.128 64.6634 147.617C64.1738 148.107 64.1738 148.901 64.6634 149.39L67.134 151.861L62.4522 151.317C61.7644 151.237 61.1421 151.73 61.0621 152.418C60.9822 153.105 61.475 153.728 62.1628 153.808L69.9903 154.717L71.6188 156.346L66.9371 155.802C66.2493 155.722 65.627 156.215 65.547 156.902C65.4671 157.59 65.9599 158.213 66.6477 158.293L74.4752 159.202L82.4868 167.214H71.0477L64.9516 162.387C64.4087 161.957 63.6202 162.049 63.1903 162.592C62.7605 163.135 62.8522 163.923 63.395 164.353L67.0082 167.214H64.7051L58.609 162.387C58.0661 161.957 57.2776 162.049 56.8478 162.592C56.418 163.135 56.5096 163.923 57.0525 164.353L60.6657 167.214H57.2537C56.5613 167.214 56 167.775 56 168.468C56 169.16 56.5613 169.721 57.2538 169.721H60.7476L57.0525 172.647C56.5096 173.077 56.418 173.865 56.8478 174.408C57.2776 174.951 58.0661 175.043 58.609 174.613L64.787 169.721H67.0901L63.395 172.647C62.8522 173.077 62.7605 173.865 63.1903 174.408C63.6202 174.951 64.4087 175.043 64.9516 174.613L71.1296 169.721H82.4597L74.3711 177.81L66.6474 178.707C65.9596 178.787 65.4669 179.41 65.5468 180.098C65.6267 180.785 66.2491 181.278 66.9369 181.198L71.5148 180.666L69.8863 182.295L62.1626 183.192C61.4748 183.272 60.982 183.895 61.0619 184.582C61.1418 185.27 61.7642 185.763 62.452 185.683L67.03 185.151L64.6173 187.564C64.1277 188.053 64.1277 188.847 64.6173 189.337C65.1069 189.826 65.9008 189.826 66.3904 189.337L68.861 186.866L68.3169 191.548C68.237 192.236 68.7297 192.858 69.4175 192.938C70.1053 193.018 70.7277 192.525 70.8076 191.837L71.7173 184.01L73.3459 182.381L72.8018 187.063C72.7218 187.751 73.2146 188.373 73.9024 188.453C74.5902 188.533 75.2126 188.04 75.2925 187.352L76.2022 179.525L84.2138 171.513V182.952L79.3871 189.048C78.9573 189.591 79.0489 190.38 79.5918 190.81C80.1346 191.24 80.9232 191.148 81.353 190.605L84.2138 186.992V189.295L79.3871 195.391C78.9573 195.934 79.0489 196.722 79.5918 197.152C80.1346 197.582 80.9232 197.49 81.353 196.947L84.2138 193.334V196.746C84.2138 197.439 84.7752 198 85.468 198C86.16 198 86.721 197.439 86.721 196.746V193.252L89.647 196.947C90.077 197.49 90.865 197.582 91.408 197.152C91.951 196.722 92.043 195.934 91.613 195.391L86.721 189.213V186.91L89.647 190.605C90.077 191.148 90.865 191.24 91.408 190.81C91.951 190.38 92.043 189.591 91.613 189.048L86.721 182.87V171.448L94.43 179.157L95.34 186.984C95.419 187.672 96.042 188.165 96.73 188.085C97.417 188.005 97.91 187.383 97.83 186.695L97.286 182.013L98.915 183.642L99.824 191.469C99.904 192.157 100.527 192.65 101.214 192.57C101.902 192.49 102.395 191.868 102.315 191.18L101.771 186.498L104.61 189.337C105.099 189.826 105.893 189.826 106.383 189.337C106.872 188.847 106.872 188.053 106.383 187.564L103.602 184.783L108.18 185.315C108.868 185.395 109.49 184.902 109.57 184.214C109.65 183.527 109.157 182.904 108.469 182.824L100.746 181.927L99.117 180.298L103.695 180.83C104.383 180.91 105.005 180.417 105.085 179.729C105.165 179.042 104.672 178.419 103.985 178.339L96.261 177.442L88.54 169.721H99.35L105.528 174.613C106.071 175.043 106.859 174.951 107.289 174.408C107.719 173.865 107.627 173.077 107.084 172.647L103.389 169.721H105.692L111.87 174.613C112.413 175.043 113.202 174.951 113.632 174.408C114.062 173.865 113.97 173.077 113.427 172.647L109.732 169.721H113.746C114.439 169.721 115 169.16 115 168.468C115 167.775 114.439 167.214 113.746 167.214H109.814L113.427 164.353C113.97 163.923 114.062 163.135 113.632 162.592C113.202 162.049 112.413 161.957 111.87 162.387L105.774 167.214H103.471L107.084 164.353C107.627 163.923 107.719 163.135 107.289 162.592C106.859 162.049 106.071 161.957 105.528 162.387L99.432 167.214H88.513L96.157 159.57L103.984 158.661C104.672 158.581 105.165 157.958 105.085 157.27C105.005 156.583 104.383 156.09 103.695 156.17L99.013 156.714L100.642 155.085L108.469 154.176C109.157 154.096 109.65 153.473 109.57 152.786C109.49 152.098 108.868 151.605 108.18 151.685L103.498 152.229L106.337 149.391C106.826 148.901 106.826 148.107 106.337 147.617C105.847 147.128 105.053 147.128 104.564 147.617L101.783 150.398L102.315 145.82C102.395 145.132 101.902 144.51 101.214 144.43C100.527 144.35 99.904 144.843 99.824 145.531L98.927 153.254L97.298 154.883L97.83 150.305C97.91 149.617 97.417 148.995 96.73 148.915C96.042 148.835 95.419 149.328 95.339 150.016L94.442 157.739L86.721 165.46V154.65L91.613 148.472C92.043 147.929 91.951 147.141 91.408 146.711C90.865 146.281 90.077 146.373 89.647 146.915L86.721 150.61V148.307L91.613 142.129C92.043 141.587 91.951 140.798 91.408 140.368C90.865 139.938 90.077 140.03 89.647 140.573L86.721 144.268V140.254C86.721 139.561 86.16 139 85.468 139Z" fill="url(#paint2_linear_6_13)"/>
<path fill-rule="evenodd" clip-rule="evenodd" d="M182.882 71.0141C182.882 73.4233 182.758 75.8036 182.517 78.149C189.953 71.6871 199.664 67.7752 210.288 67.7752C233.68 67.7752 252.643 86.7383 252.643 110.13C252.643 133.523 233.68 152.486 210.288 152.486H45.6379C45.6256 152.486 45.6133 152.486 45.601 152.486C45.5887 152.486 45.5764 152.486 45.5641 152.486H45.3518C21.3863 152.352 2 132.882 2 108.885C2 84.9758 21.2441 65.5617 45.0878 65.2867C47.999 29.8508 77.6809 2 113.868 2C151.983 2 182.882 32.8987 182.882 71.0141Z" fill="url(#paint3_linear_6_13)"/>
<mask id="mask0_6_13" style="mask-type:luminance" maskUnits="userSpaceOnUse" x="0" y="0" width="255" height="155">
<path d="M255 0H0V155H255V0Z" fill="white"/>
<path fill-rule="evenodd" clip-rule="evenodd" d="M182.882 71.0141C182.882 73.4233 182.758 75.8036 182.517 78.149C189.953 71.6871 199.664 67.7752 210.288 67.7752C233.68 67.7752 252.643 86.7383 252.643 110.13C252.643 133.523 233.68 152.486 210.288 152.486H45.6379C45.6256 152.486 45.6133 152.486 45.601 152.486C45.5887 152.486 45.5764 152.486 45.5641 152.486H45.3518C21.3863 152.352 2 132.882 2 108.885C2 84.9758 21.2441 65.5617 45.0878 65.2867C47.999 29.8508 77.6809 2 113.868 2C151.983 2 182.882 32.8987 182.882 71.0141Z" fill="black"/>
</mask>
<g mask="url(#mask0_6_13)">
<path d="M182.517 78.149L180.528 77.9447L180.011 82.9771L183.829 79.6586L182.517 78.149ZM45.3518 152.486H43.3518V154.486H45.3518V152.486ZM45.3518 152.486L47.3518 152.485V150.496L45.363 150.485L45.3518 152.486ZM45.0878 65.2867L45.1109 67.2866L46.932 67.2655L47.0811 65.4504L45.0878 65.2867ZM184.507 78.3534C184.755 75.9401 184.882 73.4916 184.882 71.0141H180.882C180.882 73.3549 180.762 75.667 180.528 77.9447L184.507 78.3534ZM210.288 65.7752C199.163 65.7752 188.991 69.8733 181.206 76.6395L183.829 79.6586C190.915 73.5008 200.164 69.7752 210.288 69.7752V65.7752ZM254.643 110.13C254.643 85.6337 234.785 65.7752 210.288 65.7752V69.7752C232.576 69.7752 250.643 87.8429 250.643 110.13H254.643ZM210.288 154.486C234.785 154.486 254.643 134.627 254.643 110.13H250.643C250.643 132.418 232.576 150.486 210.288 150.486V154.486ZM210.288 150.486H45.6379V154.486H210.288V150.486ZM45.601 154.486C45.6079 154.486 45.6146 154.486 45.6207 154.486C45.6269 154.486 45.6324 154.486 45.6379 154.486V150.486C45.631 150.486 45.6242 150.486 45.6182 150.486C45.6119 150.486 45.6064 150.486 45.601 150.486V154.486ZM45.5641 154.486C45.5695 154.486 45.5751 154.486 45.5813 154.486C45.5873 154.486 45.5941 154.486 45.601 154.486V150.486C45.5956 150.486 45.59 150.486 45.5838 150.486C45.5778 150.486 45.571 150.486 45.5641 150.486V154.486ZM45.5641 150.486H45.3518V154.486H45.5641V150.486ZM0 108.885C0 133.983 20.2756 154.345 45.3407 154.485L45.363 150.485C22.4971 150.357 4 131.781 4 108.885H0ZM45.0647 63.2868C20.1268 63.5744 0 83.879 0 108.885H4C4 86.0727 22.3614 67.5489 45.1109 67.2866L45.0647 63.2868ZM113.868 0C76.6312 0 46.0902 28.6581 43.0945 65.1229L47.0811 65.4504C49.9077 31.0436 78.7306 4 113.868 4V0ZM184.882 71.0141C184.882 31.7941 153.088 0 113.868 0V4C150.879 4 180.882 34.0033 180.882 71.0141H184.882Z" fill="url(#paint4_linear_6_13)"/>
</g>
<defs>
<linearGradient id="paint0_linear_6_13" x1="188.731" y1="114.857" x2="137.788" y2="164.558" gradientUnits="userSpaceOnUse">
<stop stop-color="#F0F0F0"/>
<stop offset="1" stop-color="#D9D9D9"/>
</linearGradient>
<linearGradient id="paint1_linear_6_13" x1="148.603" y1="202.042" x2="113.446" y2="236.343" gradientUnits="userSpaceOnUse">
<stop stop-color="#F0F0F0"/>
<stop offset="1" stop-color="#D9D9D9"/>
</linearGradient>
<linearGradient id="paint2_linear_6_13" x1="107.298" y1="143.867" x2="64.9651" y2="185.168" gradientUnits="userSpaceOnUse">
<stop stop-color="#F0F0F0"/>
<stop offset="1" stop-color="#D9D9D9"/>
</linearGradient>
<linearGradient id="paint3_linear_6_13" x1="79.9027" y1="1.3724" x2="140.193" y2="153.113" gradientUnits="userSpaceOnUse">
<stop stop-color="white"/>
<stop offset="0.708333" stop-color="#9DDCFF" stop-opacity="0.69"/>
</linearGradient>
<linearGradient id="paint4_linear_6_13" x1="119.193" y1="-50.1111" x2="202.515" y2="214.081" gradientUnits="userSpaceOnUse">
<stop stop-color="white"/>
<stop offset="0.713542" stop-color="#85C6EC" stop-opacity="0.71"/>
</linearGradient>
</defs>
</svg>
